<svg width="470" height="470" viewBox="0 0 470 470" fill="none" xmlns="http://www.w3.org/2000/svg">
<g clip-path="url(#clip0_128_14)">
<path d="M365.963 211.463H262.537V108.037C262.537 92.5525 249.985 80 234.5 80C219.015 80 206.463 92.5525 206.463 108.037V211.463H103.037C87.5525 211.463 75 224.015 75 239.5C75 254.985 87.5525 267.537 103.037 267.537H206.463V370.963C206.463 386.447 219.015 399 234.5 399C249.985 399 262.537 386.447 262.537 370.963V267.537H365.963C381.447 267.537 394 254.985 394 239.5C394 224.015 381.447 211.463 365.963 211.463Z" fill="black"/>
</g>
<path d="M234.672 0.00041339C193.89 -0.0599207 153.798 10.5244 118.361 30.7069C82.9227 50.8895 53.3658 79.9714 32.6119 115.078C11.8579 150.184 0.62564 190.099 0.0253888 230.877C-0.574862 271.654 9.47772 311.882 29.1893 347.584L0.901342 441.878C-0.0529825 445.063 -0.249508 448.427 0.327454 451.702C0.904417 454.977 2.23889 458.071 4.22437 460.739C6.20984 463.406 8.79134 465.572 11.7628 467.065C14.7343 468.557 18.0135 469.334 21.3387 469.334C23.419 469.331 25.4881 469.029 27.4827 468.438L121.776 440.15C153.141 457.45 188.05 467.34 223.829 469.062C259.607 470.784 295.305 464.293 328.187 450.086C361.069 435.879 390.262 414.333 413.53 387.099C436.797 359.866 453.521 327.667 462.421 292.97C471.32 258.273 472.159 222 464.872 186.929C457.586 151.858 442.367 118.921 420.383 90.6411C398.399 62.3612 370.232 39.4894 338.042 23.7781C305.852 8.06683 270.492 -0.0668157 234.672 0.00041339ZM234.672 426.667C199.694 426.621 165.398 416.985 135.515 398.806C132.171 396.796 128.344 395.735 124.443 395.734C122.368 395.725 120.305 396.027 118.32 396.63L53.168 416.192L72.7093 351.019C73.5577 348.182 73.8061 345.2 73.4388 342.261C73.0715 339.323 72.0966 336.493 70.576 333.952C48.6721 297.656 39.4086 255.126 44.2328 213.008C49.057 170.89 67.6973 131.557 97.241 101.153C126.785 70.7496 165.568 50.9891 207.53 44.959C249.492 38.9289 292.27 46.969 329.18 67.8229C366.089 88.6769 395.051 121.17 411.54 160.225C428.029 199.281 431.117 242.698 420.32 283.693C409.523 324.689 385.45 360.953 351.863 386.82C318.275 412.687 277.065 426.699 234.672 426.667Z" fill="black"/>
<defs>
<clipPath id="clip0_128_14">
<rect width="319" height="319" fill="white" transform="translate(75 80)"/>
</clipPath>
</defs>
</svg>
