<?xml version="1.0" encoding="iso-8859-1"?>
<!-- Generator: Adobe Illustrator 19.0.0, SVG Export Plug-In . SVG Version: 6.00 Build 0)  -->
<svg version="1.1" id="Capa_1" xmlns="http://www.w3.org/2000/svg" xmlns:xlink="http://www.w3.org/1999/xlink" x="0px" y="0px"
	 viewBox="0 0 512 512" style="enable-background:new 0 0 512 512;" xml:space="preserve">
<g>
	<g>
		<path d="M359.511,37.984c-38.907,0-75.282,14.653-103.511,41.478c-28.229-26.825-64.605-41.478-103.511-41.478
			C68.406,37.984,0,108.033,0,194.135c0,49.918,42.543,112.126,126.449,184.895c61.346,53.204,123.555,93.023,124.176,93.419
			c1.639,1.045,3.507,1.567,5.375,1.567c1.868,0,3.736-0.523,5.376-1.568c0.621-0.396,62.83-40.215,124.176-93.419
			C469.457,306.26,512,244.052,512,194.135C512,108.033,443.594,37.984,359.511,37.984z M372.62,363.771
			c-49.885,43.284-100.379,77.567-116.62,88.301c-16.216-10.715-66.578-44.903-116.448-88.153C61.34,296.089,20,237.378,20,194.135
			C20,119.06,79.435,57.984,152.489,57.984c36.726,0,70.877,15.094,96.161,42.501c1.893,2.052,4.558,3.219,7.35,3.219
			s5.457-1.167,7.35-3.219c25.285-27.406,59.435-42.5,96.161-42.5C432.565,57.984,492,119.06,492,194.135
			C492,237.344,450.719,296.003,372.62,363.771z"
			fill="#FFC3BA"
			/>
	</g>
</g>
<g>
	<g>
		<g>
			<path d="M347.379,93.307l-0.376,0.065c-5.438,0.966-9.063,6.157-8.097,11.595c0.861,4.846,5.078,8.252,9.834,8.252
				c0.581,0,1.17-0.051,1.76-0.156l0.199-0.034c5.446-0.917,9.118-6.075,8.201-11.521C357.983,96.06,352.82,92.393,347.379,93.307z"
				fill="#FFC3BA"

				/>
			<path d="M439.056,131.382c-12.278-16.867-29.718-29.43-49.106-35.375c-5.281-1.621-10.873,1.349-12.492,6.629
				c-1.619,5.28,1.349,10.873,6.629,12.492c31.959,9.8,54.279,41.078,54.279,76.063c0,5.523,4.477,10,10,10s10-4.477,9.999-10.001
				C458.365,169.416,451.688,148.735,439.056,131.382z"
				fill="#FFC3BA"/>
		</g>
	</g>
</g>
<g>
</g>
<g>
</g>
<g>
</g>
<g>
</g>
<g>
</g>
<g>
</g>
<g>
</g>
<g>
</g>
<g>
</g>
<g>
</g>
<g>
</g>
<g>
</g>
<g>
</g>
<g>
</g>
<g>
</g>
</svg>
