<svg width="471" height="470" viewBox="0 0 471 470" fill="none" xmlns="http://www.w3.org/2000/svg">
<path d="M235 0.33333C194.218 0.272996 154.126 10.8573 118.688 31.0398C83.2505 51.2224 53.6937 80.3043 32.9397 115.411C12.1858 150.517 0.953521 190.432 0.35327 231.209C-0.246981 271.987 9.8056 312.215 29.5172 347.917L1.22922 442.211C0.274898 445.396 0.0783725 448.76 0.655335 452.035C1.2323 455.31 2.56677 458.404 4.55225 461.072C6.53772 463.739 9.11922 465.905 12.0907 467.398C15.0622 468.89 18.3414 469.667 21.6666 469.667C23.7469 469.664 25.816 469.362 27.8106 468.771L122.104 440.483C153.469 457.782 188.378 467.672 224.157 469.395C259.935 471.117 295.633 464.626 328.515 450.419C361.397 436.212 390.59 414.666 413.858 387.432C437.125 360.199 453.849 328 462.749 293.303C471.648 258.606 472.487 222.333 465.2 187.262C457.913 152.191 442.695 119.254 420.711 90.9741C398.726 62.6942 370.56 39.8223 338.37 24.111C306.179 8.39975 270.82 0.266101 235 0.33333ZM235 427C200.022 426.954 165.726 417.317 135.843 399.139C132.499 397.129 128.672 396.067 124.771 396.067C122.696 396.058 120.633 396.36 118.648 396.963L53.4959 416.525L73.0372 351.352C73.8856 348.515 74.134 345.532 73.7667 342.594C73.3994 339.656 72.4245 336.826 70.9039 334.285C49 297.989 39.7365 255.459 44.5607 213.341C49.3849 171.223 68.0251 131.89 97.5689 101.486C127.113 71.0825 165.896 51.322 207.858 45.2919C249.82 39.2618 292.598 47.3019 329.508 68.1559C366.417 89.0099 395.379 121.503 411.868 160.558C428.357 199.614 431.444 243.031 420.648 284.026C409.851 325.022 385.778 361.286 352.191 387.153C318.603 413.02 277.393 427.032 235 427Z" fill="black"/>
<g clip-path="url(#clip0_128_13)">
<path d="M368.909 216.279H101.154C87.262 216.279 76 228.278 76 243.08V243.279C76 258.081 87.262 270.08 101.154 270.08H368.909C382.801 270.08 394.063 258.081 394.063 243.279V243.08C394.063 228.278 382.801 216.279 368.909 216.279Z" fill="black"/>
</g>
<defs>
<clipPath id="clip0_128_13">
<rect width="318" height="435" fill="white" transform="translate(76 18)"/>
</clipPath>
</defs>
</svg>
