<svg id="Capa_1" enable-background="new 0 0 512 512" height="512" viewBox="0 0 512 512" width="512"
    xmlns="http://www.w3.org/2000/svg">
    <path
        d="m443 283h14c30.327 0 55-24.673 55-55v-23c0-30.327-24.673-55-55-55h-101.85v30h101.85c13.785 0 25 11.215 25 25v23c0 13.785-11.215 25-25 25h-14c-30.327 0-55 24.673-55 55v12c0 30.327 24.673 55 55 55 5.557 0 10.722 2.499 14.171 6.855l28.068 35.455c2.961 3.74 7.345 5.69 11.771 5.69 3.261 0 6.546-1.059 9.301-3.24 6.495-5.142 7.592-14.576 2.45-21.071l-28.068-35.455c-9.175-11.587-22.914-18.234-37.693-18.234-13.785 0-25-11.215-25-25v-12c0-13.785 11.215-25 25-25z"
        fill="#fff" />
    <path d="m325.15 144.711-287 48.812v37.128l287-48.785z" fill="#fff" />
    <path d="m38.15 261.082v37.267l287-48.768v-37.284z" fill="#fff" />
    <path d="m124.683 382h200.466.001v-34.064z" fill="#fff" />
    <path d="m325.15 317.506v-37.495l-287 48.768v37.495z" fill="#fff" />
    <path d="m38.15 163.092 194.57-33.092h-194.57z" fill="#fff" />
    <path d="" fill="#fff" />
    <path
        d="m38.149 100h15 257 15l33.599-54.192c12.391-19.985-1.982-45.808-25.497-45.808h-8.102-287-8.102c-23.514 0-37.887 25.823-25.496 45.808z"
        fill="#fff" />
    <path
        d="m325.149 412h-287l-33.598 54.192c-12.391 19.985 1.982 45.808 25.497 45.808h8.102 287 8.102c23.515 0 37.888-25.823 25.497-45.808z"
        fill="#fff" />
</svg>