<?xml version="1.0" encoding="iso-8859-1"?>
<!-- Generator: Adobe Illustrator 19.0.0, SVG Export Plug-In . SVG Version: 6.00 Build 0)  -->
<svg version="1.1" id="Capa_1" xmlns="http://www.w3.org/2000/svg" xmlns:xlink="http://www.w3.org/1999/xlink" x="0px"
	y="0px" viewBox="0 0 491.276 491.276" style="enable-background:new 0 0 491.276 491.276;" xml:space="preserve">
	<g>
		<g>
			<g>
				<path d="M443.436,218.278c-6.241-6.204-16.319-6.204-22.56,0l-48,48l22.56,22.56l19.04-19.04
				c-13.343,105.196-109.438,179.657-214.634,166.314S20.185,326.674,33.528,221.478C45.7,125.521,127.351,53.601,224.076,53.638
				v-32C100.364,21.596,0.042,121.85,0,245.562s100.212,224.034,223.924,224.076c115.375,0.039,211.907-87.563,223.032-202.4
				l21.76,21.76l22.56-22.56L443.436,218.278z" fill="#6F6F6F" />
				<path
					d="M224.076,165.638v80c-0.025,4.253,1.645,8.34,4.64,11.36l48,48l22.56-22.56l-43.2-43.36v-73.44H224.076z"
					fill="#6F6F6F" />
			</g>
		</g>
	</g>
	<g>
	</g>
	<g>
	</g>
	<g>
	</g>
	<g>
	</g>
	<g>
	</g>
	<g>
	</g>
	<g>
	</g>
	<g>
	</g>
	<g>
	</g>
	<g>
	</g>
	<g>
	</g>
	<g>
	</g>
	<g>
	</g>
	<g>
	</g>
	<g>
	</g>
</svg>