<svg id="Layer_1" height="512" viewBox="0 0 512 512" width="512" xmlns="http://www.w3.org/2000/svg" data-name="Layer 1">
    <path
        d="m151.343 87.234 108.236 54.714s0 0 0 .011h.011l68.215 32.841-23.225-111.432a198.443 198.443 0 0 0 -153.237 23.866zm85.954 62-68.047 32.766-.188.083-110.524 52.296a198.62 198.62 0 0 1 77.3-136.448l101.462 51.299zm-76.49 55.066-103.417 48.938c-.011.92-.041 1.841-.041 2.761a198.045 198.045 0 0 0 58.925 141.062l27.65-118.872c.032-.155.083-.3.125-.455zm-4.55 93.921 46.624 58.469a8.33 8.33 0 0 0 .723.983l82.325 94.727a199.778 199.778 0 0 1 -29.929 2.251 197.774 197.774 0 0 1 -125.679-44.928l25.936-111.506zm71.564 62.089 76.769 88.32a199.444 199.444 0 0 0 123.788-93.992l-124.482 5.6c-.124.011-.247.01-.372.011-.083 0-.163-.011-.248-.011a8.383 8.383 0 0 1 -1.032.072zm92.256-17.368 116.989-5.256a198.548 198.548 0 0 0 4.046-153.755l-74.312 100.393a2.315 2.315 0 0 1 -.206.248c-.073.1-.133.207-.217.31l-46.3 58.056zm43.9-82.615-16.577-72.627a.355.355 0 0 0 -.012-.051l-24.755-118.788a199.737 199.737 0 0 1 110.719 97.718l-69.372 93.744zm-107.977-219.527c118.665 0 215.2 96.538 215.2 215.2s-96.534 215.2-215.2 215.2-215.2-96.535-215.2-215.2 96.536-215.2 215.2-215.2zm-240 215.2c0-132.342 107.669-240 240-240s240 107.659 240 240-107.669 240-240 240-240-107.669-240-240z"
        fill-rule="evenodd" fill="#FFC3BA" />
</svg>