<svg id="Layer_5" enable-background="new 0 0 50 62" height="512" viewBox="0 0 50 62" width="512"
    xmlns="http://www.w3.org/2000/svg">
    <g>
        <path
            d="m49.586 50.883-4.164-9.022c-.516-1.116-1.438-1.954-2.598-2.361-.284-.099-.573-.168-.865-.209-1.099-3.338-3.185-6.311-5.96-8.484v-.807c0-1.771-.776-3.36-2-4.46v-2.883c4.259-1.909 7-6.13 7-10.811.001-6.532-5.313-11.846-11.847-11.846h-3.604c-3.06 0-5.548 2.489-5.548 5.548 0 .882.216 1.714.589 2.452h-1.589c-1.654 0-3 1.346-3 3h-2.877l-7.881-1.97-5.242-.03v10h5.123l5.926-1.481c-.026.157-.049.316-.049.481v3 1 8.006c0 4.408 3.586 7.994 7.994 7.994h.006l.003 8.917-1.09 13.083h13.627c.769 1.232 2.125 2 3.612 2h.225c.538 0 1.03-.084 1.585-.29l10.438-4.861c1.579-.736 2.6-2.338 2.6-4.08 0-.646-.144-1.297-.414-1.886zm-5.981-8.185.395.855v1.727c0 1.312-.715 2.517-1.866 3.145l-7.588 4.138c-.524.286-1.116.437-1.714.437-1.051 0-2.029-.461-2.71-1.255l-1.831-4.272 11.926-5.963c.611-.307 1.301-.351 1.946-.123.644.225 1.156.691 1.442 1.311zm-18.531-7.066 4.271 9.076-1.845.922-3.893-9.082zm14.848 3.86c-.202.068-.406.132-.6.229l-3.322 1.661v-7.93c1.747 1.686 3.099 3.758 3.922 6.04zm-6.922-24.492h-1v9.35c-.627-.222-1.298-.35-2-.35-.335 0-.667.037-1 .064v-3.314c.633-.214 1.22-.556 1.707-1.042l-1.414-1.415c-.456.456-1.063.707-1.707.707h-1.172c-1.331 0-2.414-1.083-2.414-2.414v-4.445-1.141c0-.071-.016-.138-.021-.208.469.132.962.208 1.473.208.446 0 .892-.055 1.321-.163l3.148-.788c1.035-.255 2.079.564 2.079 1.622v1.329h1c.552 0 1 .449 1 1s-.448 1-1 1zm-14.709 7.086c.451-.538.709-1.204.709-1.915v-.171h2c.742 0 1.412-.28 1.936-.728.809 1.044 2.059 1.728 3.478 1.728h.586v3.373c-1.082.266-2.13.666-3.107 1.21l-4.893 2.718v-4.301c0-.731-.273-1.393-.709-1.914zm7.257-20.086h3.604c5.43 0 9.848 4.417 9.848 9.847 0 3.582-1.931 6.84-5 8.572v-3.591c1.164-.413 2-1.525 2-2.829 0-1.317-.854-2.438-2.035-2.841-.25-1.782-1.785-3.158-3.636-3.158-.3 0-.599.037-.891.109l-3.15.788c-.272.068-.554.103-.836.103-1.903 0-3.452-1.549-3.452-3.452 0-1.956 1.592-3.548 3.548-3.548zm-6.548 8h2c.552 0 1 .449 1 1v1.141 4.445.414c0 .551-.448 1-1 1h-2c0-.883-.391-1.67-1-2.22v-4.78c0-.551.448-1 1-1zm-5 3h2v2h-2zm-8-1.719 6 1.5v2.438l-6 1.5zm-4-.281h2v6h-2zm11 7c0-.551.448-1 1-1h2c.552 0 1 .449 1 1v2.171c0 .267-.104.519-.293.708l-.175.175c-.173-.031-.35-.054-.532-.054h-3zm0 12.006v-7.006h3c.552 0 1 .449 1 1v6.162l1.052 3.154 1.896-.633-.737-2.213 5.652-3.14c1.568-.87 3.344-1.33 5.137-1.33 2.206 0 4 1.794 4 4v12.382l-2.864 1.432-4.353-9.249.867-.542c1.471-.919 2.35-2.504 2.35-4.239v-.784h-2v.783c0 1.041-.527 1.992-1.41 2.544l-4.419 2.762c-.953.596-2.052.911-3.177.911-3.306 0-5.994-2.688-5.994-5.994zm8.825 7.457 3.659 8.537h-4.484v-8.267c.281-.073.554-.167.825-.27zm-.908 10.537h5.424l4.286 10h-2.847l-1.811-7.242-1.939.484 1.69 6.758h-5.633zm25.639 7.036-10.357 4.828c-.256.093-.517.136-.822.136h-.225c-.906 0-1.723-.536-2.078-1.365l-1.635-3.816c.45.115.916.181 1.393.181.931 0 1.855-.235 2.672-.682l7.587-4.138c1.223-.667 2.118-1.755 2.572-3.025l2.107 4.564c.15.328.23.69.23 1.049 0 .968-.567 1.859-1.444 2.268z"
            fill="#FFC3BA" />
        <circle cx="37" cy="48" r="1" fill="#FFC3BA" />
    </g>
</svg>