<svg id="Layer_1" height="512" viewBox="0 0 128 128" width="512" xmlns="http://www.w3.org/2000/svg" data-name="Layer 1">
    <path d="m81.42 77a1 1 0 0 0 0 2 9.35 9.35 0 0 1 9.35 9.35 1 1 0 0 0 2 0 11.36 11.36 0 0 0 -11.35-11.35z"
        fill="#FFC3BA" />
    <path
        d="m81.42 71.14a17.17 17.17 0 1 0 17.17 17.17 17.19 17.19 0 0 0 -17.17-17.17zm0 32.34a15.17 15.17 0 1 1 15.17-15.17 15.19 15.19 0 0 1 -15.17 15.17z"
        fill="#FFC3BA" />
    <path d="m106.47 50h11.64a1 1 0 0 0 0-2h-11.64a1 1 0 0 0 0 2z" fill="#FFC3BA" />
    <path d="m76.62 52.9h-1.34a1 1 0 0 0 0 2h1.34a1 1 0 0 0 0-2z" fill="#FFC3BA" />
    <path d="m82.11 52.9h-1.33a1 1 0 0 0 0 2h1.33a1 1 0 0 0 0-2z" fill="#FFC3BA" />
    <path d="m87.61 52.9h-1.34a1 1 0 0 0 0 2h1.34a1 1 0 0 0 0-2z" fill="#FFC3BA" />
    <path
        d="m35.67 97.82v16.64a9.22 9.22 0 0 0 .66 3.42v.06a9.25 9.25 0 0 0 8.56 5.78h73a9.26 9.26 0 0 0 8.57-5.78.14.14 0 0 0 0-.06 9 9 0 0 0 .67-3.42v-52.31a9.26 9.26 0 0 0 -9.26-9.25h-16.61l-8.53-12.54a1 1 0 0 0 -.83-.44h-3.6l-8.62-34.92a1 1 0 0 0 -.45-.61 1 1 0 0 0 -.76-.12l-58.71 14.55a1 1 0 0 0 -.76 1.18l3.81 15.43-21.6 17.09a1.05 1.05 0 0 0 -.37.67 1 1 0 0 0 .21.74zm10.67-44.92v-4.13h10v4.13zm11-6.13h-12a1 1 0 0 0 -1 1v5.16a9.26 9.26 0 0 0 -8.67 9.22v23.94l-25.06-31.77 37.65-29.69 17.48 22.16-4.16 6.11h-3.22v-5.13a1 1 0 0 0 -1-1zm45.76 41.54a21.68 21.68 0 1 1 -21.68-21.68 21.71 21.71 0 0 1 21.68 21.68zm-45.36 0a23.68 23.68 0 1 0 45.2-9.85h3.64a6.81 6.81 0 0 0 13.47 0h5.12v36a7.05 7.05 0 0 1 -.31 2.07h-86.86a7.05 7.05 0 0 1 -.31-2.07v-36h22.2a23.64 23.64 0 0 0 -2.15 9.85zm50.75-10.85a4.82 4.82 0 1 1 4.82 4.82 4.83 4.83 0 0 1 -4.82-4.82zm9.42 44.26h-73a7.26 7.26 0 0 1 -6-3.19h85a7.27 7.27 0 0 1 -6 3.19zm-18-67.26a1 1 0 0 0 .83.44h17.18a7.26 7.26 0 0 1 7.26 7.25v14.31h-5.12a6.81 6.81 0 0 0 -13.47 0h-4.67a23.66 23.66 0 0 0 -41 0h-23.25v-14.31a7.26 7.26 0 0 1 7.25-7.25h17.19a1 1 0 0 0 .83-.44l8.52-12.54h15.92a.7.7 0 0 0 .14 0h.18 3.67zm-29-14.54a1 1 0 0 0 -.83.44l-.09.13-17.55-22.29 21.68-5.36 6.69 27.08zm-49.7-19.4 56.79-14.03 8.26 33.43h-3.39l-7.05-28.53a1 1 0 0 0 -1.21-.73l-23.53 5.81-1-1.23a1 1 0 0 0 -1.4-.17l-3.68 2.93-18.87 4.64a1 1 0 0 0 -.73 1.21l2 8-2.83 2.25zm7.89 10-1.52-6.18 13.63-3.34zm-4.54 6.13 4.53-3.58 17-13.38 3.08-2.43 19.69 25-1.92 2.83-17.73-22.48a1 1 0 0 0 -1.4-.17l-39.22 30.93a1 1 0 0 0 -.17 1.41l26.52 33.62a1 1 0 0 0 .73.36v5.83l-32.43-41.12z"
        fill="#FFC3BA" />
</svg>