<?xml version="1.0" encoding="iso-8859-1"?>
<!-- Generator: Adobe Illustrator 19.0.0, SVG Export Plug-In . SVG Version: 6.00 Build 0)  -->
<svg version="1.1" id="Capa_1" xmlns="http://www.w3.org/2000/svg" xmlns:xlink="http://www.w3.org/1999/xlink" x="0px"
    y="0px" viewBox="0 0 496 496" style="enable-background:new 0 0 496 496;" xml:space="preserve">
    <g>
        <g>
            <path d="M352,464h123.096l-31.6-94.808c-8.264-24.792-29.352-43.176-55.04-47.992L304,305.36v-19.544
			c20.232-14.6,34.512-36.84,38.656-62.488C361.536,220.136,376,203.776,376,184v-56C376,57.424,318.576,0,248,0S120,57.424,120,128
			v56c0,19.752,14.392,36.208,33.24,39.432c4.16,25.648,18.52,47.912,38.76,62.504v19.432l-84.464,15.84
			c-25.68,4.816-46.776,23.2-55.04,47.992L20.904,464H144v-16h-21.752l13.512-54.064l-15.52-3.872L105.752,448H43.096l24.584-73.744
			c6.424-19.28,22.832-33.584,42.808-37.336l50.96-9.552l13.032,58.624C165.968,389.688,160,398.152,160,408v64
			c0,13.232,10.768,24,24,24h128c13.232,0,24-10.768,24-24v-64c0-9.848-5.968-18.312-14.472-22.008l13.032-58.624l50.96,9.552
			c19.976,3.752,36.376,18.056,42.808,37.336L452.904,448h-62.656l-14.488-57.936l-15.52,3.872L373.752,448H352V464z
			 M318.824,324.416l-11.048,49.712L302.248,352h-34.936l31.36-31.36L318.824,324.416z M293.752,384h-91.504l4-16h83.504
			L293.752,384z M248,348.688l-40-40V295.2c12.192,5.616,25.72,8.8,40,8.8c14.288,0,27.808-3.224,40-8.84v13.528L248,348.688z
			 M344,206.528V161.48c9.288,3.312,16,12.112,16,22.528S353.288,203.216,344,206.528z M152,206.632c-9.312-3.304-16-12.2-16-22.632
			s6.688-19.328,16-22.632V206.632z M136,152.208V128c0-61.76,50.24-112,112-112s112,50.24,112,112v24.208
			c-4.736-3.584-10.208-6.232-16.256-7.424c-1.256-9.448-9.272-16.784-19.056-16.784c-5.08,0-10.056,2.064-14.056,6.064
			c-13.512,13.512-30.632,22.128-49.176,24.928l0.512-1.024c1.328-2.672,2.032-5.656,2.032-8.64v-2.016
			c0-10.648-8.664-19.312-19.312-19.312c-5.08,0-10.056,2.064-13.656,5.656C214.176,150.504,191.816,159.848,168,160v-16h-8
			C150.96,144,142.704,147.128,136,152.208z M168,208v-32c28.088-0.152,54.472-11.16,74.336-31.024
			c1.928-1.936,5.664-0.36,5.664,2.336v2.016c0,0.512-0.12,1.024-0.352,1.488L235.056,176H248c27.936,0,54.192-10.872,74.336-31.024
			c1.936-1.936,5.664-0.36,5.664,2.336V208c0,44.112-35.888,80-80,80S168,252.112,168,208z M197.328,320.64l31.36,31.36h-34.936
			l-5.528,22.128l-11.048-49.712L197.328,320.64z M184,480c-4.408,0-8-3.584-8-8v-64c0-4.416,3.592-8,8-8h24.888
			C198.48,410.176,192,424.336,192,440s6.48,29.824,16.888,40H184z M248,480c-22.056,0-40-17.944-40-40c0-22.056,17.944-40,40-40
			c22.056,0,40,17.944,40,40C288,462.056,270.056,480,248,480z M320,472c0,4.416-3.592,8-8,8h-24.888
			C297.52,469.824,304,455.664,304,440s-6.48-29.824-16.888-40H312c4.408,0,8,3.584,8,8V472z" fill="#FFC3BA" />
        </g>
    </g>
    <g>
        <g>
            <path d="M248,416c-13.232,0-24,10.768-24,24s10.768,24,24,24s24-10.768,24-24S261.232,416,248,416z M248,448c-4.408,0-8-3.584-8-8
			c0-4.416,3.592-8,8-8s8,3.584,8,8C256,444.416,252.408,448,248,448z" fill="#FFC3BA" />
        </g>
    </g>
    <g>
    </g>
    <g>
    </g>
    <g>
    </g>
    <g>
    </g>
    <g>
    </g>
    <g>
    </g>
    <g>
    </g>
    <g>
    </g>
    <g>
    </g>
    <g>
    </g>
    <g>
    </g>
    <g>
    </g>
    <g>
    </g>
    <g>
    </g>
    <g>
    </g>
</svg>