<?xml version="1.0" encoding="UTF-8"?>
<svg xmlns="http://www.w3.org/2000/svg" viewBox="0 0 64 64" width="512" height="512">
    <g id="Outline">
        <path
            d="M55.938,17.306a4.008,4.008,0,0,0-4.633-3.245l-1.3.23V7a5.006,5.006,0,0,0-5-5H19a5.006,5.006,0,0,0-5,5V29.609A36.539,36.539,0,0,0,4.076,48.975L2.015,60.829a1,1,0,1,0,1.97.342L6.047,49.318A34.465,34.465,0,0,1,14,32.61V40.1a1,1,0,0,0,2,0V7a3,3,0,0,1,3-3H45a3,3,0,0,1,3,3V21.834a4.078,4.078,0,0,0-.71.053l-1.97.347a4.006,4.006,0,0,0-3.244,4.635A3.941,3.941,0,0,0,43.4,29.184a3.943,3.943,0,0,0,1.214,6.709A3.912,3.912,0,0,0,44,38a4,4,0,0,0,4,4V53a3,3,0,0,1-3,3H23.389a9.211,9.211,0,0,0,.528-2.045,21.529,21.529,0,0,1,.54-2.808,2,2,0,0,1,1.627-1.456l6.18-.951a6.02,6.02,0,0,0,5.027-6.779,3.252,3.252,0,0,0-.382-1.121A4.6,4.6,0,0,0,37,40a4.988,4.988,0,0,0-9.962-.379l-1.6.111A19.945,19.945,0,0,0,20,40.9V15a1,1,0,0,0-2,0V41.7l-2.437,1.027A13.969,13.969,0,0,0,7,55.629a1,1,0,0,0,2,0,11.974,11.974,0,0,1,7.341-11.058l3.5-1.475a17.977,17.977,0,0,1,5.741-1.369l8.369-.582a1.292,1.292,0,0,1,1.361,1.1,4.014,4.014,0,0,1-3.352,4.519l-6.18.95a4.006,4.006,0,0,0-3.254,2.912,23.723,23.723,0,0,0-.59,3.062A7.311,7.311,0,0,1,14.707,60a1,1,0,1,0,0,2,9.317,9.317,0,0,0,7.627-4H34.273a15.966,15.966,0,0,1-7.707,2,1,1,0,0,0,0,2,18.037,18.037,0,0,0,11.3-4H45a5.006,5.006,0,0,0,5-5V42a3.987,3.987,0,0,0,1.185-7.8,3.945,3.945,0,0,0-.576-5.375,3.964,3.964,0,0,0-.577-6.419l2.662-.469A4.005,4.005,0,0,0,55.938,17.306ZM33.812,39.15l-4.76.331a2.99,2.99,0,0,1,5.847-.214A3.226,3.226,0,0,0,33.812,39.15ZM45.668,24.2l1.97-.347a1.966,1.966,0,0,1,.348-.031,2,2,0,0,1,.346,3.97l-1.97.347a2,2,0,0,1-.694-3.939Zm-1.622,8.317A2,2,0,0,1,45.668,30.2l1.97-.347a1.966,1.966,0,0,1,.348-.031,2,2,0,0,1,.346,3.97l-1.97.347A2,2,0,0,1,44.046,32.521ZM52,38a2,2,0,0,1-2,2H48a2,2,0,0,1,0-4h2A2,2,0,0,1,52,38ZM50,20.384V16.322l1.652-.291a2,2,0,1,1,.7,3.939Z"
            fill="#FFC3BA" />
        <circle cx="19" cy="7" r="1" fill="#FFC3BA" />
        <circle cx="23" cy="7" r="1" fill="#FFC3BA" />
        <path
            d="M19,12h4a5.008,5.008,0,0,0,4.9-4H44V19.358a1,1,0,1,0,2,0V7a1,1,0,0,0-1-1H27a1,1,0,0,0-1,1,3,3,0,0,1-3,3H19a1,1,0,0,0,0,2Z"
            fill="#FFC3BA" />
        <path d="M25.985,53a1,1,0,0,0,1,1H45a1,1,0,0,0,1-1V43.5a1,1,0,0,0-2,0V52H26.985A1,1,0,0,0,25.985,53Z"
            fill="#FFC3BA" />
        <path
            d="M37.754,20a1.244,1.244,0,0,1-1.209-.943l-.149-.6A3.242,3.242,0,0,0,33.246,16H30.754a3.242,3.242,0,0,0-3.15,2.46l-.148.6a1.246,1.246,0,0,1-1.21.944A3.249,3.249,0,0,0,23,23.246v5.508A3.249,3.249,0,0,0,26.246,32H34a1,1,0,0,0,0-2H26.246A1.247,1.247,0,0,1,25,28.754V23.246A1.247,1.247,0,0,1,26.246,22a3.242,3.242,0,0,0,3.15-2.46l.148-.6A1.246,1.246,0,0,1,30.754,18h2.492a1.244,1.244,0,0,1,1.209.943l.149.6A3.242,3.242,0,0,0,37.754,22,1.247,1.247,0,0,1,39,23.246v5.508A1.247,1.247,0,0,1,37.754,30a1,1,0,1,0,0,2A3.249,3.249,0,0,0,41,28.754V23.246A3.249,3.249,0,0,0,37.754,20Z"
            fill="#FFC3BA" />
        <path d="M32,21.5A3.5,3.5,0,1,0,35.5,25,3.5,3.5,0,0,0,32,21.5Zm0,5A1.5,1.5,0,1,1,33.5,25,1.5,1.5,0,0,1,32,26.5Z"
            fill="#FFC3BA" />
    </g>
</svg>